<?xml version="1.0" encoding="UTF-8"?>
<svg id="_Слой_1" data-name="Слой_1" xmlns="http://www.w3.org/2000/svg" version="1.1" viewBox="0 0 154.29 60">
  <!-- Generator: Adobe Illustrator 29.4.0, SVG Export Plug-In . SVG Version: 2.1.0 Build 152)  -->
  <defs>
    <style>
      .st0 {
        fill: #fff;
      }
    </style>
  </defs>
  <path class="st0" d="M31.31,33.51c-.75-.53-1.71-.64-2.78-.64h-7.37v7.37h7.69c2.35,0,3.74-1.39,3.84-3.52.11-1.28-.43-2.46-1.39-3.2Z"/>
  <path class="st0" d="M60.13,19.74c-5.12,0-9.61,3.52-9.61,10.36s4.38,10.46,9.61,10.46,9.61-3.31,9.61-10.46-4.59-10.36-9.61-10.36Z"/>
  <path class="st0" d="M31.41,23.69c0-2.35-1.49-3.95-3.84-3.95h-6.3v7.37h6.3c2.35.11,3.84-1.17,3.84-3.42Z"/>
  <path class="st0" d="M.67.31v59.68h153.62V.31H.67ZM29.38,46.32h-15.05V13.87h13.77c5.87,0,10.14,3.52,10.14,9.61,0,2.35-1.17,4.7-3.2,5.98,2.99,1.28,4.59,3.84,4.59,7.26,0,5.66-3.84,9.61-10.25,9.61ZM60.02,46.85c-8.65,0-16.44-5.87-16.44-16.76s8.01-16.65,16.65-16.65,16.44,5.87,16.44,16.65c0,9.82-6.83,16.76-16.65,16.76ZM93.76,46.96c-6.51,0-13.24-3.2-13.24-10.25h6.62c.11,2.99,3.42,4.16,6.51,4.16,2.88,0,6.19-.64,6.19-4.06,0-3.74-3.95-4.06-7.05-4.27-5.87-.53-11.85-2.46-11.85-9.18,0-7.15,5.87-10.14,12.28-10.14s12.38,2.56,12.38,9.82h-6.51c-.32-2.67-3.1-3.74-5.87-3.74s-5.55,1.49-5.55,3.95c0,2.88,2.78,3.52,6.19,3.84,6.83.64,12.7,2.14,12.7,9.71.11,7.69-6.51,10.03-12.81,10.14ZM123.65,46.96c-6.51,0-13.24-3.2-13.24-10.25h6.62c.11,2.99,3.42,4.16,6.51,4.16,2.88,0,6.19-.64,6.19-4.06,0-3.74-3.95-4.06-7.05-4.27-5.87-.53-11.85-2.46-11.85-9.18,0-7.15,5.87-10.14,12.28-10.14s12.38,2.56,12.38,9.82h-6.3c-.32-2.67-3.1-3.74-5.87-3.74s-5.55,1.49-5.55,3.95c0,2.88,2.78,3.52,6.19,3.84,6.83.64,12.7,2.14,12.7,9.71,0,7.69-6.62,10.03-13.02,10.14ZM146.28,46.32h-6.94v-6.94h6.94v6.94Z"/>
</svg>