<?xml version="1.0" encoding="UTF-8"?> <svg xmlns="http://www.w3.org/2000/svg" width="195" height="36" viewBox="0 0 195 36" fill="none"><path d="M24.0301 8.7519C23.3345 7.15679 22.3541 5.78494 21.0891 4.63956C19.8207 3.49419 18.3292 2.61737 16.6111 2.00909C14.8931 1.40082 13.01 1.09668 10.9651 1.09668H0V27.1199H11.0363C13.0585 27.1199 14.9222 26.8158 16.6273 26.2075C18.3324 25.5992 19.8175 24.7224 21.0858 23.577C22.3541 22.4316 23.3345 21.063 24.0269 19.4647C24.7225 17.8696 25.0687 16.0836 25.0687 14.1099C25.0687 12.1362 24.7225 10.3502 24.0269 8.75513L24.0301 8.7519ZM16.8117 17.8728C16.2746 18.8952 15.5078 19.6588 14.508 20.1571C13.5083 20.6553 12.3273 20.9077 10.9619 20.9077H7.30578V7.30886H10.9619C12.3273 7.30886 13.5018 7.558 14.4886 8.0595C15.4754 8.55777 16.2423 9.30841 16.7923 10.3082C17.3391 11.308 17.6141 12.5633 17.6141 14.0711C17.6141 15.5788 17.3456 16.8471 16.8117 17.8728Z" fill="#8DFF92"></path><path d="M64.4693 9.13672H48.172V14.8377H54.4198L47.5508 22.7679V27.1165H64.2525V21.4155H57.6003L64.4693 13.4852V9.13672Z" fill="#8DFF92"></path><path d="M70.8632 7.45462C69.8149 7.45462 68.9445 7.09547 68.2489 6.37719C67.5532 5.65891 67.207 4.77561 67.207 3.72731C67.207 2.679 67.5532 1.79571 68.2489 1.07743C68.9445 0.359142 69.8149 0 70.8632 0C71.9115 0 72.8109 0.359142 73.4936 1.07743C74.1763 1.79571 74.516 2.679 74.516 3.72731C74.516 4.77561 74.1731 5.65891 73.4936 6.37719C72.8109 7.09547 71.9341 7.45462 70.8632 7.45462ZM67.2814 27.1168V9.13708H74.4449V27.12H67.2814V27.1168Z" fill="#8DFF92"></path><path d="M117.572 11.9682C116.986 10.9813 116.19 10.2016 115.178 9.62889C114.165 9.05621 113.016 8.77148 111.725 8.77148C110.289 8.77148 109.001 9.05297 107.868 9.61272C107.564 9.76479 107.28 9.93303 107.011 10.1175V9.1371H99.8477V27.1201H107.011V17.0317C107.011 16.5691 107.102 16.1743 107.286 15.8443C107.471 15.5143 107.726 15.2652 108.053 15.0937C108.383 14.9222 108.752 14.8381 109.169 14.8381C109.777 14.8381 110.285 15.0257 110.687 15.4043C111.088 15.7828 111.288 16.3232 111.288 17.0317V27.1201H118.452V15.3881C118.452 14.0971 118.161 12.9582 117.575 11.9714L117.572 11.9682Z" fill="#8DFF92"></path><path d="M89.378 8.91385V9.8392C89.0512 9.63537 88.7018 9.45418 88.32 9.30211C87.4302 8.94944 86.4628 8.77148 85.4145 8.77148C83.732 8.77148 82.2469 9.16298 80.956 9.9395C79.665 10.7193 78.6523 11.774 77.9211 13.1006C77.1898 14.4304 76.8242 15.922 76.8242 17.5785C76.8242 19.2351 77.1898 20.6976 77.9211 22.0371C78.6523 23.3766 79.6618 24.4378 80.956 25.2176C82.2469 25.9973 83.732 26.3888 85.4145 26.3888C86.4628 26.3888 87.4302 26.2109 88.32 25.8582C88.7018 25.7061 89.0512 25.525 89.378 25.3211V26.4018C89.378 27.5601 89.145 28.3463 88.6824 28.7702C88.2197 29.1908 87.5791 29.4011 86.7572 29.4011C85.4307 29.4011 84.6736 28.9384 84.4859 28.0131H77.604C77.8337 30.307 78.7882 32.1222 80.4609 33.4584C82.1337 34.7947 84.4018 35.4644 87.262 35.4644C89.3877 35.4644 91.1284 35.0535 92.4873 34.235C93.843 33.4131 94.8266 32.3195 95.4381 30.9509C96.0496 29.5823 96.3538 28.0681 96.3538 26.405V8.91385H89.378ZM89.1774 18.8598C88.9574 19.274 88.6403 19.6137 88.2262 19.8822C87.812 20.1508 87.3138 20.2834 86.7281 20.2834C86.1425 20.2834 85.6863 20.1443 85.2851 19.8628C84.8839 19.5813 84.5733 19.2287 84.3533 18.8016C84.1332 18.3745 84.0232 17.9539 84.0232 17.5397C84.0232 17.0997 84.1332 16.6694 84.3533 16.2423C84.5733 15.8152 84.8904 15.469 85.3045 15.2004C85.7186 14.9319 86.2072 14.7992 86.7669 14.7992C87.3267 14.7992 87.8444 14.9351 88.2488 15.2004C88.65 15.469 88.9606 15.8087 89.1806 16.2229C89.2648 16.3814 89.3295 16.5464 89.3812 16.7114V18.3615C89.3295 18.5265 89.2648 18.6916 89.1806 18.8501L89.1774 18.8598Z" fill="#8DFF92"></path><path d="M45.7792 19.4514H34.1734C34.2802 21.0335 34.9435 21.823 36.1568 21.823C36.9365 21.823 37.4995 21.4671 37.8489 20.752H45.488C45.2291 22.0527 44.6791 23.2175 43.8476 24.2464C43.0128 25.2753 41.9613 26.0874 40.693 26.686C39.4246 27.2813 38.0334 27.579 36.5159 27.579C34.6943 27.579 33.0733 27.2004 31.6562 26.4401C30.2358 25.6829 29.1325 24.5926 28.3398 23.1722C27.5471 21.7518 27.1523 20.0887 27.1523 18.183C27.1523 16.2773 27.5471 14.611 28.3398 13.1939C29.1292 11.7735 30.2358 10.6864 31.6562 9.92601C33.0766 9.1689 34.6943 8.78711 36.5159 8.78711C38.3375 8.78711 39.9553 9.16243 41.3757 9.90983C42.796 10.6572 43.8994 11.725 44.6921 13.113C45.4815 14.501 45.8795 16.135 45.8795 18.0213C45.8795 18.5195 45.8471 18.9951 45.7824 19.4514H45.7792ZM38.5608 16.3C38.5608 15.6949 38.3666 15.2322 37.9751 14.9184C37.5836 14.6046 37.0983 14.446 36.5127 14.446C35.2347 14.446 34.4872 15.064 34.2705 16.3H38.5608Z" fill="#8DFF92"></path><path d="M123.613 27.1175V1.33691H130.777V27.1207H123.613V27.1175Z" fill="white"></path><path d="M146.275 9.1371V10.1272C145.835 9.80038 145.347 9.51889 144.797 9.30211C143.907 8.94944 142.939 8.77148 141.891 8.77148C140.209 8.77148 138.724 9.16622 137.433 9.95892C136.142 10.7516 135.129 11.8549 134.398 13.2656C133.666 14.6795 133.301 16.3005 133.301 18.1253C133.301 19.9502 133.666 21.5679 134.398 22.9689C135.129 24.3699 136.138 25.4732 137.433 26.2756C138.724 27.078 140.209 27.4824 141.891 27.4824C142.939 27.4824 143.907 27.3045 144.797 26.9518C145.35 26.7318 145.838 26.4536 146.275 26.1268V27.1168H153.257V9.1371H146.275ZM143.496 21.1991C142.936 21.1991 142.422 21.0664 141.962 20.7979C141.5 20.5293 141.14 20.1637 140.885 19.701C140.629 19.2384 140.5 18.7142 140.5 18.1286C140.5 17.543 140.632 17.0188 140.901 16.5561C141.17 16.0934 141.529 15.7278 141.978 15.4593C142.428 15.1907 142.946 15.0581 143.531 15.0581C144.117 15.0581 144.635 15.1907 145.085 15.4593C145.534 15.7278 145.884 16.087 146.126 16.5367C146.369 16.9864 146.492 17.5171 146.492 18.1253C146.492 19.0281 146.217 19.7657 145.67 20.3352C145.12 20.9079 144.395 21.1926 143.496 21.1926V21.1991Z" fill="white"></path><path d="M175.711 13.2662C174.967 11.8523 173.932 10.7522 172.605 9.95955C171.279 9.16685 169.723 8.77212 167.946 8.77212C166.875 8.77212 165.863 8.95007 164.911 9.30274C164.601 9.41922 164.313 9.55511 164.035 9.69747V1.33691H156.871V27.1207H163.85V26.2956C164.183 26.5059 164.533 26.7001 164.911 26.8651C165.863 27.2792 166.872 27.4863 167.946 27.4863C169.726 27.4863 171.279 27.0851 172.605 26.2795C173.932 25.4738 174.967 24.3737 175.711 22.9728C176.456 21.5718 176.828 19.9573 176.828 18.1292C176.828 16.3011 176.456 14.6834 175.711 13.2695V13.2662ZM169.244 19.6984C168.988 20.1611 168.635 20.5267 168.182 20.7953C167.733 21.0638 167.215 21.1965 166.629 21.1965C166.044 21.1965 165.526 21.0671 165.076 20.8115C164.627 20.5558 164.271 20.1967 164.015 19.734C163.76 19.2713 163.63 18.7343 163.63 18.126C163.63 17.5177 163.753 16.9871 163.996 16.5373C164.238 16.0876 164.585 15.7285 165.038 15.4599C165.487 15.1914 166.005 15.0587 166.591 15.0587C167.176 15.0587 167.7 15.1914 168.163 15.4599C168.626 15.7285 168.985 16.0941 169.24 16.5568C169.496 17.0194 169.625 17.5436 169.625 18.1292C169.625 18.7148 169.499 19.239 169.24 19.7017L169.244 19.6984Z" fill="white"></path><path d="M182.452 26.7911C181.106 26.2217 180.042 25.4354 179.252 24.4292C178.466 23.4229 178.016 22.2873 177.906 21.0157H184.895C184.982 21.5625 185.218 21.967 185.6 22.229C185.982 22.4911 186.471 22.6238 187.06 22.6238C187.432 22.6238 187.726 22.5429 187.946 22.3779C188.166 22.2129 188.273 22.0123 188.273 21.7696C188.273 21.3554 188.043 21.0578 187.584 20.8831C187.124 20.7083 186.348 20.511 185.254 20.291C183.921 20.0289 182.821 19.7442 181.957 19.4368C181.093 19.1294 180.339 18.6053 179.692 17.8611C179.048 17.1169 178.725 16.088 178.725 14.7776C178.725 13.642 179.026 12.6066 179.628 11.678C180.229 10.7494 181.119 10.015 182.3 9.48112C183.481 8.94402 184.914 8.67871 186.597 8.67871C189.091 8.67871 191.042 9.29022 192.453 10.5165C193.864 11.7427 194.711 13.3378 194.996 15.3083H188.532C188.422 14.8068 188.192 14.4185 187.842 14.1435C187.493 13.8717 187.021 13.7326 186.432 13.7326C186.06 13.7326 185.775 13.8038 185.578 13.9461C185.38 14.0885 185.283 14.302 185.283 14.5868C185.283 14.9588 185.513 15.2371 185.972 15.4248C186.432 15.6124 187.163 15.8033 188.169 16.0007C189.502 16.2627 190.632 16.5572 191.547 16.8872C192.466 17.214 193.265 17.7802 193.941 18.5761C194.618 19.3753 194.957 20.4754 194.957 21.8731C194.957 22.9667 194.64 23.9503 194.006 24.8271C193.372 25.704 192.46 26.3899 191.266 26.8946C190.072 27.3994 188.677 27.6485 187.082 27.6485C185.332 27.6485 183.785 27.3638 182.439 26.7943L182.452 26.7911Z" fill="white"></path></svg> 