<?xml version="1.0" encoding="UTF-8"?> <svg xmlns="http://www.w3.org/2000/svg" width="110" height="56" viewBox="0 0 110 56" fill="none"><path d="M108.498 12.1102C109.318 7.06129 105.889 2.30397 100.84 1.48442C95.7913 0.664864 91.034 4.09343 90.2144 9.14234C89.3948 14.1912 92.8234 18.9486 97.8723 19.7681C102.921 20.5877 107.679 17.1591 108.498 12.1102Z" fill="#8DFF92"></path><path d="M82.0672 28.0922C82.0672 22.7126 77.7062 18.3516 72.3266 18.3516C66.947 18.3516 62.5859 22.7126 62.5859 28.0922V45.336C62.5859 50.7156 66.947 55.0767 72.3266 55.0767C77.7062 55.0767 82.0672 50.7156 82.0672 45.336V28.0922Z" fill="#8DFF92"></path><path d="M89.5704 35.5957H72.3266C66.947 35.5957 62.5859 39.9567 62.5859 45.3363C62.5859 50.7159 66.947 55.077 72.3266 55.077H89.5704C94.95 55.077 99.311 50.7159 99.311 45.3363C99.311 39.9567 94.95 35.5957 89.5704 35.5957Z" fill="#8DFF92"></path><path fill-rule="evenodd" clip-rule="evenodd" d="M90.0469 38.1549H75.9941V27.2979H81.8656C82.2227 30.2313 83.9087 32.9705 86.6659 34.5615C87.7417 35.1808 88.8897 35.574 90.0469 35.7548V38.1549Z" fill="#8DFF92"></path><path d="M79.5089 38.1543H62.5859V55.0772H79.5089V38.1543Z" fill="#8DFF92"></path><path fill-rule="evenodd" clip-rule="evenodd" d="M12.9745 19.1784C11.8379 19.6764 10.5819 19.9527 9.2615 19.9527C4.14652 19.9527 0 15.8062 0 10.6912C0 5.5762 4.14652 1.42969 9.2615 1.42969C14.3765 1.42969 18.523 5.5762 18.523 10.6912C18.523 10.6914 18.523 10.6916 18.523 10.6918L18.5317 10.6966C18.5287 10.7109 18.5258 10.7254 18.5229 10.74C18.5209 11.1168 18.4965 11.4883 18.4508 11.8532C18.4543 11.9122 18.4589 11.9722 18.4648 12.033C18.444 12.08 18.424 12.1274 18.4047 12.1752C18.3329 12.6215 18.2291 13.0571 18.0959 13.4796C18.0854 13.6052 18.0801 13.7323 18.0801 13.8606C18.0801 16.1858 19.8357 18.1009 22.0937 18.3526H23.1065C23.1412 18.3487 23.1759 18.3444 23.2104 18.3398C23.2166 18.3441 23.2229 18.3483 23.2292 18.3526H30.1823H34.6526H38.0025V18.3903C38.3721 18.3681 38.7447 18.3569 39.1199 18.3569C49.26 18.3569 57.4801 26.5771 57.4801 36.7172C57.4801 45.6623 51.0832 53.1134 42.6144 54.7453C41.8066 54.9623 40.9574 55.078 40.0811 55.078H30.1823C30.1558 55.078 30.1293 55.0779 30.1029 55.0777H28.2618C22.883 55.0777 18.5212 50.7159 18.5212 45.3371V24.0923C18.5165 24.0804 18.5117 24.0685 18.5069 24.0566C18.5126 24.0017 18.5174 23.9465 18.5212 23.891V23.2666C18.3608 20.9159 16.4032 19.0588 14.0118 19.0588C13.6549 19.0588 13.3076 19.1002 12.9745 19.1784Z" fill="#8DFF92"></path></svg> 