<?xml version="1.0" encoding="UTF-8"?>
<svg id="Layer_1" xmlns="http://www.w3.org/2000/svg" version="1.1" viewBox="0 0 180.3 167">
  <!-- Generator: Adobe Illustrator 29.4.0, SVG Export Plug-In . SVG Version: 2.1.0 Build 152)  -->
  <defs>
    <style>
      .st0 {
        fill: #8dff92;
        fill-rule: evenodd;
        opacity: 0.5;
      }
    </style>
  </defs>
  <path class="st0" d="M46.62,58.64c-3.11,1.36-6.54,2.11-10.15,2.11-14.01,0-25.37-11.36-25.37-25.37s11.36-25.38,25.38-25.38,25.38,11.36,25.38,25.38h0l.02.02s0,.07-.02.11c0,1.04-.07,2.06-.2,3.07,0,.16.02.33.04.5-.06.13-.12.27-.17.41-.19,1.2-.47,2.37-.83,3.51-.03.36-.05.72-.05,1.08,0,6.37,4.81,11.62,10.99,12.31h2.79c.09,0,.18-.02.27-.03.02,0,.03.02.05.03h40.48v.1c1.01-.06,2.03-.09,3.06-.09,27.78,0,50.31,22.52,50.31,50.31,0,24.5-17.51,44.91-40.7,49.39-2.22.6-4.56.92-6.97.92h-32.38c-14.74,0-26.69-11.95-26.69-26.69v-58.22s-.02-.05-.03-.08c0-.12.02-.24.03-.36v-1.91c-.49-6.39-5.83-11.43-12.35-11.43-.99,0-1.95.12-2.87.33l-.02-.02Z"/>
</svg>