<?xml version="1.0" encoding="UTF-8"?> <svg xmlns="http://www.w3.org/2000/svg" width="147" height="147" viewBox="0 0 147 147" fill="none"><path d="M141.703 38.857C144.333 22.6563 133.332 7.39106 117.131 4.7613C100.93 2.13154 85.6648 13.133 83.035 29.3338C80.4053 45.5346 91.4068 60.7998 107.608 63.4296C123.808 66.0593 139.074 55.0578 141.703 38.857Z" fill="#8DFF92"></path><path d="M62.511 60.1383C62.511 42.8764 48.5174 28.8828 31.2555 28.8828C13.9936 28.8828 0 42.8764 0 60.1383L0 115.47C0 132.732 13.9936 146.725 31.2555 146.725C48.5174 146.725 62.511 132.732 62.511 115.47L62.511 60.1383Z" fill="#8DFF92"></path><path d="M86.5871 84.2148H31.2555C13.9936 84.2148 0 98.2084 0 115.47C0 132.732 13.9936 146.726 31.2555 146.726H86.5871C103.849 146.726 117.843 132.732 117.843 115.47C117.843 98.2084 103.849 84.2148 86.5871 84.2148Z" fill="#8DFF92"></path><path fill-rule="evenodd" clip-rule="evenodd" d="M88.1233 92.4258H43.0312V57.5879H61.8716C63.0174 67.0008 68.4272 75.79 77.2745 80.8953C80.7264 82.8824 84.4103 84.1442 88.1233 84.7243V92.4258Z" fill="#8DFF92"></path><path d="M54.3019 92.4258H0L0 146.728H54.3019V92.4258Z" fill="#8DFF92"></path></svg> 