<?xml version="1.0" encoding="UTF-8"?>
<svg id="Layer_1" xmlns="http://www.w3.org/2000/svg" version="1.1" viewBox="0 0 221 122.62">
  <!-- Generator: Adobe Illustrator 29.4.0, SVG Export Plug-In . SVG Version: 2.1.0 Build 152)  -->
  <defs>
    <style>
      .st0 {
        fill: #8dff92;
        opacity: 0.5;
      }
    </style>
  </defs>
  <path class="st0" d="M180.78,40.73c-19.51-3.17-37.88,10.08-41.05,29.58-3.17,19.51,10.08,37.88,29.58,41.05,19.51,3.17,37.88-10.08,41.05-29.59,3.17-19.51-10.08-37.88-29.58-41.05Z"/>
  <path class="st0" d="M66.47,10.04c-1.03,0-2.05.03-3.06.09v-.1h-21.41v-.03H10v50h.03v23.97c0,14.74,11.95,26.69,26.7,26.69h32.38c2.41,0,4.75-.32,6.97-.92,23.19-4.48,40.7-24.89,40.7-49.39,0-27.79-22.53-50.31-50.31-50.31Z"/>
</svg>