<?xml version="1.0" encoding="UTF-8"?>
<svg id="Layer_1" xmlns="http://www.w3.org/2000/svg" version="1.1" viewBox="0 0 166.46 167">
  <!-- Generator: Adobe Illustrator 29.4.0, SVG Export Plug-In . SVG Version: 2.1.0 Build 152)  -->
  <defs>
    <style>
      .st0 {
        fill: #8dff92;
        opacity: 0.5;
      }
    </style>
  </defs>
  <path class="st0" d="M130.73,10.4c-16.7-2.71-32.43,8.63-35.14,25.33s8.63,32.43,25.33,35.14c16.7,2.71,32.43-8.63,35.14-25.33,2.71-16.7-8.63-32.43-25.33-35.14Z"/>
  <path class="st0" d="M99.25,92.29h-1.03c-2.93-.71-5.82-1.84-8.57-3.42-7.96-4.6-13.23-12.09-15.22-20.38v-1.02c0-17.79-14.42-32.22-32.22-32.22S10,49.69,10,67.48v89.25h55.97s33.28,0,33.28,0c17.79,0,32.22-14.42,32.22-32.22s-14.42-32.22-32.22-32.22Z"/>
</svg>