<?xml version="1.0" encoding="UTF-8"?>
<svg id="Layer_1" xmlns="http://www.w3.org/2000/svg" version="1.1" viewBox="0 0 165.56 198">
  <!-- Generator: Adobe Illustrator 29.4.0, SVG Export Plug-In . SVG Version: 2.1.0 Build 152)  -->
  <defs>
    <style>
      .st0 {
        fill: #8dff92;
        opacity: 0.5;
      }
    </style>
  </defs>
  <path class="st0" d="M143.1,119.63c-1.93-3.16-3.46-6.65-4.47-10.41-2.92-10.9-.99-21.96,4.48-30.88l.88-.88c15.44-15.44,15.44-40.46,0-55.9-15.44-15.44-40.46-15.44-55.9,0l-49.43,49.44s-.03.03-.04.04c-.06.06-.12.13-.18.19l-27.77,27.76,27.9,27.9s.03.03.04.04l49.48,49.48c15.44,15.43,40.46,15.43,55.9,0,15.44-15.44,15.44-40.46,0-55.9l-.88-.88h-.01Z"/>
</svg>