<?xml version="1.0" encoding="UTF-8"?>
<svg id="Layer_1" xmlns="http://www.w3.org/2000/svg" version="1.1" viewBox="0 0 65.45 60">
  <!-- Generator: Adobe Illustrator 29.4.0, SVG Export Plug-In . SVG Version: 2.1.0 Build 152)  -->
  <defs>
    <style>
      .st0 {
        fill: #dc0606;
        fill-rule: evenodd;
      }

      .st1 {
        fill: #fff;
      }
    </style>
  </defs>
  <path class="st0" d="M0,60h65.45V0H0v60Z"/>
  <path class="st1" d="M36.07,8.21c.64-.81,1.61-1.56,2.85-.29,1.34,1.21,2.36,2.31,2.04,2.66-.21.23-.75-.06-1.13-.29-.48.23-.7.63-.81,1.15-.16.58-.32,1.27-.59,1.33.38,1.67.16,4.73-.32,5.72v1.67c1.39,2.71,2.31,9.99.48,13.34,0,0-.05,4.33-.86,6.24,0,0-.81,4.1-.59,6.29.38.17,1.45.87,1.66,1.27.21.35.27.93.21,1.1-.48.92-3.17.98-4.35,0-.27-.92.22-4.39.11-6.53-.16-2.08-.38-2.89-.7-5.66-1.72.35-3.49.52-5.47.29-.48,2.37-1.34,5.83-1.45,7.85-.11,1.56-.22,6.01-.22,6.01,0,.4.32.75.32,1.04.05.46.11,1.04.05,1.33-.7,1.44-3.7,1.27-4.18.06,0-.35.05-1.1.22-1.33.16-.29.86-.81.97-1.21.21-1.5.38-6.93,0-8.2-.54-1.15-.97-4.27-1.02-6.99-.38-.12-1.88-1.1-3.38-2.08-.54,1.85-1.56,2.77-1.56,2.77l.48,2.54c.32.06,1.39.52,1.61.93.16.35.16.63.16.92-.32.63-2.63.52-3.06-.06l-1.5-5.14s.54-1.73.27-3.98c-4.78.52-6.28,7.28-6.82,10.39l.05.46c.11.17.11.69,0,.81-.38.75-2.68.69-3.17,0,0-.23.05-.63.21-.98.16-.23.97-.87,1.18-1.04l1.07-4.56c.16-5.08,1.39-9.93,3.38-12.59-2.74-3.58-2.47-7.56-.32-9.64.21-.23.64-.46.81-.35.11.06.05.23-.16.63-1.5,2.43-1.23,5.72,1.56,7.51,3.22-2.19,12.61-2.6,12.61-2.6l.21-.98c-.11-.4-.48-2.14-.38-3-.11-.06-.38-.46-.81-.81-.32-.29-.81-.29-.97-.63-1.02,1.44-.75-.35-.59-1.04.27-1.27.48-3.12,2.36-3.29.38-.06,1.29,0,1.66.46.32-.52,2.95-1.15,3.54-1.04.54-.52,4.08-.69,4.29-.46h0Z"/>
  <path class="st1" d="M55.47,45.67l-2.18-.41v5.14l-7.89-4.52v8l2.24.42v-4.47l7.83,4.78v-8.94h0ZM58.94,40.99l-13.54-4.99v2.39l6.6,2.29-6.6,2.13v2.65l9.62-3.48,3.92,1.66v-2.65h0ZM55.47,27.06h-7.05c-2.13,0-3.24,1.3-3.24,2.86,0,1.4.73,2.34,1.62,3.01l-1.4.16v2.23h10.07v-2.39h-6.49c-1.01-.73-1.4-1.51-1.4-2.23s.39-1.25,1.68-1.25h6.21v-2.39h0ZM58.61,24.99c.22-.73.45-1.71.45-3.27,0-2.81-1.62-4.16-4.98-4.16h-8.67v2.29l.67.05c-.45.52-.89,1.4-.89,2.34,0,2.55,2.01,3.9,5.2,3.9,2.91,0,4.92-1.35,4.92-3.69,0-.94-.5-1.87-1.23-2.44h.56c1.29,0,2.18.67,2.18,2.08,0,1.2-.22,1.87-.45,2.44l2.24.47h0ZM47.42,21.76c0-.62.28-1.35.67-1.77h3.92c.56.47,1.01,1.2,1.01,2.08,0,.83-.62,1.51-2.63,1.51-1.9,0-2.97-.47-2.97-1.82h0ZM55.47,8.1h-10.07v2.23l.67.1c-.45.52-.89,1.4-.89,2.29,0,2.6,2.18,3.95,5.37,3.95,2.91,0,5.14-1.35,5.14-3.74,0-.88-.45-1.82-1.23-2.39l1.01-.16v-2.29h0ZM47.42,12.31c0-.62.28-1.35.67-1.77h4.31c.56.41,1.01,1.2,1.01,2.03s-.84,1.56-2.85,1.56c-1.85,0-3.13-.47-3.13-1.82h0Z"/>
  <path class="st1" d="M53.91,6.12c0-.41.34-.73.78-.73.5,0,.84.31.84.73,0,.47-.34.78-.84.78-.45,0-.78-.31-.78-.78ZM55.42,6.12c0-.31-.34-.62-.73-.62s-.67.31-.67.62c0,.36.28.68.67.68s.73-.31.73-.68ZM54.24,6.44v-.31c0-.26.06-.36.28-.36.17,0,.22.1.22.26l.45-.26v.16l-.45.26v.1h.45v.16h-.95ZM54.64,6.28v-.1c0-.15,0-.26-.17-.26-.11,0-.11.1-.11.21v.16h.28Z"/>
</svg>