<?xml version="1.0" encoding="UTF-8"?>
<svg id="Layer_1" xmlns="http://www.w3.org/2000/svg" version="1.1" viewBox="0 0 104.21 59.41">
  <!-- Generator: Adobe Illustrator 29.4.0, SVG Export Plug-In . SVG Version: 2.1.0 Build 152)  -->
  <defs>
    <style>
      .st0 {
        fill-rule: evenodd;
      }
    </style>
  </defs>
  <path class="st0" d="M42.78,0v16.11s7.35,7.37,7.35,7.37l-10.89,10.88h22.15v-16.13l-7.35-7.35L64.93,0h-22.15ZM43.68.54h20.05s-10.03,9.97-10.03,9.97L43.68.54ZM43.36,15.79V.87l10.2,10.2,6.93,6.93-17.13-2.21ZM43.79,16.37l17.13,2.21v14.92l-10.2-10.18h0s-6.93-6.94-6.93-6.94ZM50.57,23.85l10.03,9.97h-20.05l10.03-9.97Z"/>
  <g>
    <path class="st0" d="M6.94,46.7c-.99,0-1.64.36-1.64,1.08,0,2.6,8.29,1.12,8.29,6.78,0,3.21-2.83,4.85-6.33,4.85-2.63,0-5.37-.97-7.25-2.51l1.59-3.21c1.62,1.39,4.06,2.38,5.7,2.38,1.21,0,1.98-.45,1.98-1.28,0-2.67-8.29-1.06-8.29-6.62,0-2.94,2.49-4.81,6.29-4.81,2.31,0,4.65.72,6.29,1.77l-1.55,3.26c-1.66-.94-3.77-1.68-5.07-1.68"/>
    <path class="st0" d="M22.95,46.9c-2.43,0-4.27,1.91-4.27,4.42s1.84,4.47,4.27,4.47c1.3,0,2.81-.72,3.91-1.84l2.4,2.58c-1.68,1.77-4.2,2.92-6.53,2.92-4.74,0-8.26-3.46-8.26-8.08s3.62-7.95,8.42-7.95c2.34,0,4.78,1.03,6.35,2.69l-2.38,2.85c-1.03-1.26-2.54-2.07-3.91-2.07"/>
    <path class="st0" d="M34.01,51.41c0,2.56,2,4.54,4.33,4.54s4.24-1.98,4.24-4.54-1.89-4.49-4.24-4.49-4.33,1.93-4.33,4.49M46.81,51.39c0,4.6-3.64,8.06-8.51,8.06s-8.51-3.46-8.51-8.06,3.64-7.97,8.51-7.97,8.51,3.41,8.51,7.97"/>
    <path class="st0" d="M57.94,49.19c0-1.55-.97-2.38-2.63-2.38h-2.6v4.83h2.6c1.66,0,2.63-.85,2.63-2.45M61.85,49.05c0,3.71-2.31,5.86-6.33,5.86h-2.81v4.36h-4.11v-15.74h6.92c4.02,0,6.33,2.02,6.33,5.52"/>
    <path class="st0" d="M76.24,43.53v3.28h-8.31v2.94h7.5v3.26l-7.5.02v2.96h8.53v3.28h-12.64v-15.74h12.42Z"/>
    <path class="st0" d="M83.76,43.53v12.24h6.67v3.5h-10.78v-15.74h4.11Z"/>
    <path class="st0" d="M98.53,54.24v5.03h-4.11v-4.92l-5.79-10.82h4.11l3.73,6.76,3.64-6.76h4.11l-5.68,10.71Z"/>
  </g>
</svg>